<?xml version="1.0" standalone="no"?>
<!DOCTYPE svg PUBLIC "-//W3C//DTD SVG 1.1//EN" "http://www.w3.org/Graphics/SVG/1.1/DTD/svg11.dtd" >
<svg xmlns="http://www.w3.org/2000/svg" xmlns:xlink="http://www.w3.org/1999/xlink" version="1.1">
<metadata></metadata>
<defs>
<font id="euclid_flexbold_italic" horiz-adv-x="1222" >
<font-face units-per-em="2048" ascent="1651" descent="-397" />
<missing-glyph horiz-adv-x="450" />
<glyph horiz-adv-x="0" />
<glyph horiz-adv-x="682" />
<glyph unicode=" "  horiz-adv-x="450" />
<glyph unicode="&#x09;" horiz-adv-x="450" />
<glyph unicode="&#xa0;" horiz-adv-x="450" />
<glyph unicode="!" horiz-adv-x="675" d="M154 170q0 61 31 116.5t85 90.5h279q24 -24 39.5 -66.5t15.5 -85.5q-1 -112 -68.5 -176.5t-175.5 -64.5q-83 0 -144.5 54.5t-61.5 131.5zM354 522l19 377l119 555h311l-119 -555l-141 -377h-189z" />
<glyph unicode="&#x22;" horiz-adv-x="925" d="M371 844v610h260v-610h-260zM784 844v610h260v-610h-260z" />
<glyph unicode="#" horiz-adv-x="1710" d="M334 371v233h244l75 246h-170v233h244l115 371h262l-115 -371h268l115 371h262l-114 -371h168v-233h-242l-76 -246h170v-233h-244l-114 -371h-262l114 371h-268l-115 -371h-262l115 371h-170zM840 604h268l76 246h-269z" />
<glyph unicode="$" horiz-adv-x="1126" d="M133 342l291 129q36 -113 86.5 -157t138.5 -44q70 0 110 34t40 87q-2 49 -28 89.5t-107 103.5l-72 57q-127 103 -187.5 198t-60.5 220q0 184 118 292t304 117l37 166h260l-45 -209q144 -67 219 -229l-289 -129q-34 65 -73 92t-91 27t-87 -27t-35 -84q0 -51 32.5 -98 t120.5 -117l70 -55q111 -87 173 -178t62 -213q0 -175 -104.5 -289t-302.5 -135l-37 -170h-260l41 188q-120 37 -205.5 124t-118.5 210z" />
<glyph unicode="%" horiz-adv-x="858" d="M203 240q0 122 86.5 212.5t226.5 90.5q118 0 187 -75.5t69 -180.5q0 -121 -87 -212t-226 -91q-118 0 -187 75.5t-69 180.5zM244 610l49 234h633l-49 -234h-633zM399 256q0 -34 20.5 -58t57.5 -24q45 0 71.5 27.5t26.5 68.5q0 35 -19.5 58.5t-57.5 23.5q-44 0 -71.5 -28 t-27.5 -68zM399 1167q0 122 87 212.5t227 90.5q118 0 187 -75.5t69 -180.5q0 -121 -87.5 -212t-226.5 -91q-118 0 -187 75.5t-69 180.5zM596 1184q0 -34 20.5 -58t57.5 -24q45 0 71.5 27.5t26.5 68.5q0 35 -20 58.5t-58 23.5q-44 0 -71 -28t-27 -68z" />
<glyph unicode="&#x26;" horiz-adv-x="1261" d="M131 420q0 100 32.5 190t95.5 163t167.5 116.5t237.5 44.5l-144 520h830l-58 -270h-383l328 -1184h-315l-27 98q-133 -114 -332 -114q-101 0 -184.5 36.5t-136.5 98t-82 139t-29 162.5zM434 446q0 -72 42 -123t118 -51q91 0 146 58t55 141q0 72 -42 123t-118 51 q-91 0 -146 -58t-55 -141z" />
<glyph unicode="'" horiz-adv-x="512" d="M371 844v610h260v-610h-260z" />
<glyph unicode="(" horiz-adv-x="641" d="M213 274q0 339 120 658t359 633l244 -121q-226 -312 -338.5 -575t-112.5 -554q0 -125 14 -282.5t38 -268.5l-250 -100q-34 108 -54 286.5t-20 323.5z" />
<glyph unicode=")" horiz-adv-x="641" d="M-35 -215q110 152 187 280t140 268.5t93.5 284.5t30.5 295q0 127 -13.5 284t-37.5 267l249 101q34 -108 54 -287t20 -324q0 -339 -120 -657.5t-359 -632.5z" />
<glyph unicode="*" horiz-adv-x="1015" d="M268 1042l66 201l291 -94v305h211v-305l288 96l66 -201l-289 -96l180 -246l-170 -122l-180 243l-182 -243l-170 122l180 246z" />
<glyph unicode="+" horiz-adv-x="1257" d="M305 461v233h330v330h233v-330h330v-233h-330v-330h-233v330h-330z" />
<glyph unicode="," horiz-adv-x="630" d="M117 -315l157 315h-137l76 356h356l-75 -356l-199 -315h-178z" />
<glyph unicode="-" horiz-adv-x="757" d="M180 430l64 295h581l-63 -295h-582z" />
<glyph unicode="." horiz-adv-x="686" d="M166 205q0 92 64.5 156.5t156.5 64.5t156.5 -64.5t64.5 -156.5t-64.5 -156.5t-156.5 -64.5t-156.5 64.5t-64.5 156.5z" />
<glyph unicode="/" horiz-adv-x="851" d="M102 0l678 1454h279l-678 -1454h-279z" />
<glyph unicode="0" horiz-adv-x="1646" d="M217 666q0 124 34 241t103.5 219t167 179t233.5 121t294 44q151 0 280.5 -57t216.5 -151.5t136 -217.5t49 -256q0 -124 -34 -241t-103 -219t-166.5 -179t-234 -121t-294.5 -44q-151 0 -280.5 57t-216.5 151.5t-136 217.5t-49 256zM528 692q0 -84 25 -158.5t72.5 -133.5 t124.5 -93.5t174 -34.5q152 0 266.5 68t172.5 178t58 244q0 84 -25 158.5t-73 133.5t-124.5 93.5t-172.5 34.5q-116 0 -211 -39.5t-157 -106.5t-96 -155.5t-34 -188.5z" />
<glyph unicode="1" horiz-adv-x="626" d="M158 0l245 1159l379 311l-313 -1470h-311z" />
<glyph unicode="2" horiz-adv-x="1198" d="M27 0l565 555q-142 37 -220.5 147.5t-78.5 253.5q0 98 37.5 190t105 164.5t169.5 116t222 43.5q101 0 184.5 -36.5t137 -97.5t82.5 -139.5t29 -164.5q0 -59 -15.5 -115t-36 -97.5t-58.5 -90t-66.5 -78.5t-75.5 -76l-291 -286h442l-61 -289h-1071zM596 983 q0 -74 42.5 -124t121.5 -50q88 0 142 58t54 141q0 72 -42 123t-117 51q-91 0 -146 -58t-55 -141z" />
<glyph unicode="3" horiz-adv-x="1073" d="M131 248l262 151q20 -58 66.5 -92.5t115.5 -34.5q101 0 163.5 62t62.5 153q0 81 -57 135t-175 54h-155l336 489h-424l61 289h879l-383 -559q106 -54 160.5 -155.5t54.5 -225.5q0 -104 -33 -196.5t-98 -168.5t-173.5 -120.5t-246.5 -44.5q-155 0 -261.5 71t-154.5 193z " />
<glyph unicode="4" horiz-adv-x="1206" d="M39 328l1284 1142l-186 -872h135l-58 -270h-135l-69 -328h-312l70 328h-729zM676 598h149l35 164z" />
<glyph unicode="5" horiz-adv-x="1112" d="M150 223l245 178q25 -57 82.5 -93t126.5 -36q101 0 163 62t62 153q0 78 -48 133.5t-130 55.5q-127 0 -188 -94l-203 88l191 784h770l-62 -289h-475l-49 -202q20 2 45 2q104 0 190 -37.5t141 -100.5t85 -144t30 -169q0 -104 -33 -196.5t-98 -168.5t-173.5 -120.5 t-246.5 -44.5q-145 0 -252.5 64t-172.5 175z" />
<glyph unicode="6" horiz-adv-x="1083" d="M141 434q0 201 125 361l510 659h361l-383 -493q121 -14 210.5 -81t132 -162t42.5 -204q0 -104 -33 -196.5t-98 -168.5t-173.5 -120.5t-246.5 -44.5q-104 0 -190 37t-141.5 99.5t-85.5 143.5t-30 170zM438 459q0 -78 47.5 -132.5t130.5 -54.5q102 0 164 62t62 153 q0 78 -48 133.5t-130 55.5q-102 0 -164 -63t-62 -154z" />
<glyph unicode="7" horiz-adv-x="1064" d="M72 0l776 1165h-529l62 289h1008l-969 -1454h-348z" />
<glyph unicode="8" horiz-adv-x="1175" d="M193 412q0 150 61 269t178 187q-51 79 -51 179q0 77 26 150t76 135t134.5 100t191.5 38q85 0 157 -30t119.5 -80.5t74 -116.5t26.5 -137q0 -181 -119 -291q117 -114 117 -278q0 -110 -34 -208.5t-98 -176t-166.5 -123t-228.5 -45.5q-198 0 -331 124.5t-133 303.5z M487 449q0 -75 51.5 -126t135.5 -51q100 0 157.5 66t57.5 162q0 77 -48 126.5t-130 49.5q-101 0 -162.5 -65t-61.5 -162zM674 1061q0 -43 28 -71.5t76 -28.5q54 0 85.5 37t31.5 87q0 43 -28 71t-76 28q-54 0 -85.5 -36.5t-31.5 -86.5z" />
<glyph unicode="9" horiz-adv-x="1085" d="M254 940q0 104 33 196.5t98 168.5t173.5 120.5t246.5 44.5t241.5 -64t154 -165t50.5 -221q0 -201 -125 -361l-510 -659h-360l383 494q-121 14 -210.5 81t-132 161.5t-42.5 203.5zM551 967q0 -78 48 -133.5t130 -55.5q102 0 163.5 63t61.5 154q0 78 -47.5 132.5 t-130.5 54.5q-101 0 -163 -62t-62 -153z" />
<glyph unicode=":" horiz-adv-x="686" d="M166 205q0 92 64.5 156.5t156.5 64.5t156.5 -64.5t64.5 -156.5t-64.5 -156.5t-156.5 -64.5t-156.5 64.5t-64.5 156.5zM297 819q0 92 64.5 156.5t156.5 64.5t156.5 -64.5t64.5 -156.5t-64.5 -156.5t-156.5 -64.5t-156.5 64.5t-64.5 156.5z" />
<glyph unicode=";" horiz-adv-x="686" d="M127 -315l158 315h-138l76 356h357l-76 -356l-199 -315h-178zM281 819q0 92 64.5 156.5t156.5 64.5t156.5 -64.5t64.5 -156.5t-64.5 -156.5t-156.5 -64.5t-156.5 64.5t-64.5 156.5z" />
<glyph unicode="&#x3c;" horiz-adv-x="1032" d="M195 580l591 596l175 -175l-420 -421l420 -422l-175 -174z" />
<glyph unicode="=" horiz-adv-x="1347" d="M350 250v233h893v-233h-893zM350 672v233h893v-233h-893z" />
<glyph unicode="&#x3e;" horiz-adv-x="1032" d="M317 158l420 422l-420 421l175 175l591 -596l-591 -596z" />
<glyph unicode="?" horiz-adv-x="1019" d="M238 983q3 97 41 184.5t104.5 155t167 107.5t219.5 40q101 0 185 -36.5t137.5 -98t82.5 -139t29 -162.5q0 -99 -37 -190t-106 -163.5t-179 -115.5t-245 -43h-158l62 289h108q125 0 188.5 55.5t63.5 141.5q0 72 -43 123t-119 51q-95 0 -146.5 -57t-51.5 -142h-303z M326 170q0 60 34 115.5t89 91.5h278q23 -23 36 -65t13 -87q0 -110 -76.5 -175.5t-185.5 -65.5q-81 0 -134.5 53.5t-53.5 132.5z" />
<glyph unicode="@" horiz-adv-x="1644" d="M236 690q0 171 64.5 318.5t173 247.5t252.5 157t302 57q201 0 361 -77.5t252 -223.5t92 -338q0 -128 -32 -227t-86.5 -156t-120 -85.5t-138.5 -28.5q-68 0 -122 28.5t-79 75.5q-47 -46 -115 -73t-137 -27q-162 0 -251 100t-89 252q0 189 125 319t320 130q109 0 184 -56 l8 35h195l-97 -450q-14 -72 7 -117t84 -45q85 0 128.5 78t43.5 252q0 116 -43.5 207.5t-118.5 147.5t-170 85t-203 29q-120 0 -229 -41.5t-194.5 -117.5t-136 -194t-50.5 -262q0 -244 144.5 -389t389.5 -145q197 0 361 84l67 -166q-94 -42 -210 -66t-218 -24 q-162 0 -297.5 55t-226 150t-140.5 224t-50 277zM776 707q0 -82 40.5 -129.5t119.5 -47.5q91 0 149 58l66 303q-54 57 -141 57q-101 0 -167.5 -69t-66.5 -172z" />
<glyph unicode="A" horiz-adv-x="1392" d="M-20 0l1030 1470l403 -1470h-328l-57 225h-530l-154 -225h-364zM678 492h280l-75 299z" />
<glyph unicode="B" horiz-adv-x="1286" d="M137 0l309 1454h453q103 0 188.5 -31t140.5 -83t85 -118.5t30 -138.5q0 -96 -42.5 -184.5t-122.5 -148.5q143 -95 143 -283q0 -98 -36 -182t-106 -148t-181.5 -100.5t-252.5 -36.5h-608zM524 301h252q104 0 162.5 46t58.5 116q0 53 -36.5 90t-100.5 37h-274zM645 866h170 q96 0 149.5 47.5t53.5 118.5q0 53 -37 88t-104 35h-170z" />
<glyph unicode="C" horiz-adv-x="1499" d="M225 674q0 123 34 239t104 217.5t168 177t234.5 119t295.5 43.5q198 0 353 -86t241 -231l-273 -186q-52 83 -145 135.5t-207 52.5q-106 0 -196.5 -36.5t-150.5 -98.5t-94 -144.5t-34 -173.5q0 -82 23.5 -154t69 -128t119 -88.5t167.5 -32.5q121 0 219 48t162 130 l227 -225q-108 -128 -272 -198t-363 -70q-123 0 -231.5 36.5t-190 101t-140.5 151t-89.5 189t-30.5 212.5z" />
<glyph unicode="D" horiz-adv-x="1466" d="M137 0l309 1454h472q144 0 265.5 -50.5t202 -135.5t125.5 -194.5t45 -227.5q0 -173 -44 -313.5t-122.5 -238.5t-189.5 -165t-243 -98t-285 -31h-535zM528 299h170q106 0 200.5 33.5t167 94.5t115 154.5t42.5 206.5q0 159 -91.5 263t-250.5 104h-170z" />
<glyph unicode="E" horiz-adv-x="1120" d="M137 0l309 1454h902l-70 -324h-573l-52 -245h451l-68 -316h-450l-51 -245h573l-70 -324h-901z" />
<glyph unicode="F" horiz-adv-x="1058" d="M137 0l309 1454h861l-70 -324h-532l-52 -245h410l-68 -316h-409l-121 -569h-328z" />
<glyph unicode="G" horiz-adv-x="1544" d="M223 649q0 131 32.5 250.5t100.5 224t165.5 181.5t235.5 121t302 44q195 0 350 -86t244 -231l-273 -186q-55 83 -148 135.5t-204 52.5q-112 0 -203 -37t-150 -101.5t-90.5 -150t-31.5 -184.5q0 -163 100 -273t279 -110q169 0 276 68l45 206h-350l203 308h526l-151 -719 q-221 -178 -580 -178q-150 0 -279 55t-215.5 147t-135 212.5t-48.5 250.5z" />
<glyph unicode="H" horiz-adv-x="1511" d="M137 0l309 1454h328l-121 -569h582l121 569h327l-309 -1454h-327l120 569h-581l-121 -569h-328z" />
<glyph unicode="I" horiz-adv-x="604" d="M137 0l309 1454h330l-309 -1454h-330z" />
<glyph unicode="J" horiz-adv-x="1032" d="M76 373q0 47 8 88h328q-6 -30 -6 -58q0 -58 29 -90t77 -32q61 0 93.5 31.5t51.5 121.5l217 1020h328l-221 -1040q-50 -233 -161.5 -331.5t-340.5 -98.5q-167 0 -285 111.5t-118 277.5z" />
<glyph unicode="K" horiz-adv-x="1374" d="M137 0l309 1454h328l-156 -727l660 727h391l-698 -770l399 -684h-360l-402 682l-143 -682h-328z" />
<glyph unicode="L" horiz-adv-x="1060" d="M137 0l309 1454h330l-239 -1128h563l-70 -326h-893z" />
<glyph unicode="M" horiz-adv-x="1724" d="M137 0l314 1470l532 -737l915 737l-311 -1470h-327l147 698l-477 -383l-307 426l-158 -741h-328z" />
<glyph unicode="N" horiz-adv-x="1519" d="M137 0l314 1470l743 -817l170 801h328l-314 -1470l-743 817l-170 -801h-328z" />
<glyph unicode="O" horiz-adv-x="1626" d="M207 666q0 124 34 241t103.5 219t167 179t233 121t293.5 44q151 0 280.5 -57t216.5 -151.5t136 -217.5t49 -256q0 -124 -33.5 -241t-103 -219t-167 -179t-233.5 -121t-294 -44q-151 0 -280.5 57t-216.5 151.5t-136 217.5t-49 256zM537 694q0 -78 24.5 -148.5t70.5 -126 t119 -88t164 -32.5q141 0 251 64t167.5 168t57.5 229q0 78 -24.5 148.5t-70.5 126t-119.5 88t-164.5 32.5q-141 0 -251 -64t-167 -168t-57 -229z" />
<glyph unicode="P" horiz-adv-x="1140" d="M137 0l309 1454h388q220 0 358.5 -125t138.5 -303q0 -117 -35 -215.5t-106.5 -177t-192.5 -122.5t-282 -44h-152l-98 -467h-328zM629 772h139q100 0 169 59t69 148q0 71 -46 119.5t-135 48.5h-116z" />
<glyph unicode="Q" horiz-adv-x="1667" d="M207 666q0 124 34 241t103.5 219t167 179t233 121t293.5 44q151 0 280.5 -57t216.5 -151.5t136 -217.5t49 -256q0 -254 -137 -460l197 -191l-207 -211l-199 193q-207 -135 -485 -135q-151 0 -280.5 57t-216.5 151.5t-136 217.5t-49 256zM537 694q0 -78 24.5 -148.5 t70.5 -126t119 -88t164 -32.5q130 0 224 49l-207 203l207 211l207 -203q45 95 45 201q0 78 -24.5 148.5t-70.5 126t-119.5 88t-164.5 32.5q-141 0 -251 -64t-167 -168t-57 -229z" />
<glyph unicode="R" horiz-adv-x="1280" d="M137 0l309 1454h463q99 0 182.5 -33t138.5 -87.5t85.5 -123t30.5 -141.5q0 -192 -113 -313t-301 -154l334 -602h-346l-326 590h-6l-125 -590h-326zM647 866h187q77 0 131.5 45t54.5 117q0 53 -35 90t-90 37h-186z" />
<glyph unicode="S" horiz-adv-x="1060" d="M113 317l282 162q40 -102 94 -146t140 -44q59 0 101 30.5t42 81.5q0 42 -28 76t-109 92l-74 54q-66 50 -112 93t-86 95t-60 109.5t-20 121.5q0 132 62 230.5t162.5 148t223.5 49.5q70 0 129.5 -11t121 -38t115.5 -79t99 -128l-283 -161q-38 67 -80.5 89.5t-97.5 22.5 q-51 0 -86 -26.5t-35 -69.5q0 -44 36 -84.5t120 -103.5l72 -54q268 -191 268 -393q0 -201 -133 -325.5t-361 -124.5q-184 0 -312 89.5t-191 243.5z" />
<glyph unicode="T" horiz-adv-x="1103" d="M279 1130l69 324h1026l-69 -324h-347l-239 -1130h-334l240 1130h-346z" />
<glyph unicode="U" horiz-adv-x="1437" d="M244 496q0 65 16 147l172 811h328l-180 -846q-11 -60 -11 -90q0 -108 64 -163.5t170 -55.5q247 0 307 287l184 868h330l-184 -864q-69 -323 -226 -464.5t-450 -141.5q-145 0 -262.5 62.5t-187.5 180t-70 269.5z" />
<glyph unicode="V" horiz-adv-x="1331" d="M289 1454h332l172 -741l485 741h383l-999 -1470z" />
<glyph unicode="W" horiz-adv-x="1794" d="M319 1454h326l78 -672l479 688l168 -716l381 700h342l-817 -1470l-193 841l-573 -841z" />
<glyph unicode="X" horiz-adv-x="1380" d="M0 0l682 780l-309 674h338l192 -422l369 422h399l-631 -721l340 -733h-338l-223 481l-420 -481h-399z" />
<glyph unicode="Y" horiz-adv-x="1343" d="M279 1454h344l215 -526l440 526h405l-718 -844l-129 -610h-328l129 610z" />
<glyph unicode="Z" horiz-adv-x="1277" d="M16 0l897 1130h-571l70 324h1147l-897 -1130h614l-70 -324h-1190z" />
<glyph unicode="[" horiz-adv-x="595" d="M51 -326l402 1880h473l-47 -221h-213l-308 -1437h213l-47 -222h-473z" />
<glyph unicode="\" horiz-adv-x="1265" d="M309 1454h279l678 -1454h-279z" />
<glyph unicode="]" horiz-adv-x="595" d="M-70 -326l47 222h213l308 1437h-213l47 221h473l-402 -1880h-473z" />
<glyph unicode="^" horiz-adv-x="1191" d="M158 616l569 854l569 -854h-280l-289 433l-289 -433h-280z" />
<glyph unicode="_" horiz-adv-x="892" d="M-49 -233l49 233h893l-49 -233h-893z" />
<glyph unicode="`" horiz-adv-x="856" d="M473 1454h328l92 -317h-199z" />
<glyph unicode="a" horiz-adv-x="1220" d="M174 436q0 168 72.5 305.5t206 218t301.5 80.5q154 0 243 -77l15 61h305l-217 -1024h-279l8 61q-100 -77 -239 -77q-115 0 -211.5 63t-150.5 167t-54 222zM483 477q0 -99 53 -155t140 -56q105 0 186 68l74 352q-64 72 -178 72q-115 0 -195 -79t-80 -202z" />
<glyph unicode="b" d="M121 0l309 1454h309l-100 -471q91 57 205 57q120 0 218 -63.5t151 -166.5t53 -222q0 -171 -67 -306.5t-200 -216.5t-313 -81q-158 0 -244 75l-12 -59h-309zM502 338q61 -72 180 -72q115 0 194.5 78.5t79.5 202.5q0 99 -52.5 155t-139.5 56q-110 0 -189 -70z" />
<glyph unicode="c" horiz-adv-x="1101" d="M174 465q0 162 73 293t207 206.5t304 75.5q154 0 267 -77t167 -193l-256 -152q-29 62 -84 98t-121 36q-107 0 -176.5 -73.5t-69.5 -186.5q0 -100 57 -160t144 -60q132 0 217 113l219 -182q-82 -102 -201.5 -160.5t-261.5 -58.5q-113 0 -206.5 39.5t-153.5 106.5 t-92.5 153.5t-32.5 181.5z" />
<glyph unicode="d" horiz-adv-x="1220" d="M174 436q0 168 72.5 305.5t206 218t301.5 80.5q155 0 241 -75l105 489h309l-309 -1454h-279l8 61q-100 -77 -239 -77q-115 0 -211.5 63t-150.5 167t-54 222zM483 477q0 -99 53 -155t140 -56q105 0 186 68l74 352q-61 72 -178 72q-115 0 -195 -79t-80 -202z" />
<glyph unicode="e" horiz-adv-x="1146" d="M174 465q0 159 71.5 289.5t206 208t306.5 77.5q206 0 329 -120t123 -338q0 -50 -10 -125h-729q9 -86 64.5 -135.5t134.5 -49.5q137 0 225 109l227 -176q-81 -104 -200.5 -162.5t-262.5 -58.5q-113 0 -206.5 39.5t-153.5 106.5t-92.5 153.5t-32.5 181.5zM494 637h426v10 q0 71 -55.5 108.5t-135.5 37.5q-79 0 -144 -41.5t-91 -114.5z" />
<glyph unicode="f" horiz-adv-x="741" d="M166 0l160 754h-133l57 270h164q-49 71 -49 168q0 41 17 83t53 84t105 68.5t160 26.5h320l-57 -270h-220q-100 0 -100 -82q0 -32 22 -55t62 -23h203l-58 -270h-237l-160 -754h-309z" />
<glyph unicode="g" horiz-adv-x="1204" d="M80 -272l158 264q126 -107 290 -107q55 0 103.5 10.5t91 32.5t67.5 62.5t25 95.5q0 13 -4 37q-101 -64 -254 -64q-119 0 -208.5 62t-133 160t-43.5 215q0 146 68 269.5t198 199t297 75.5q152 0 242 -73l12 57h309l-174 -825q11 -64 11 -103q0 -104 -41 -193.5 t-117 -156.5t-191.5 -105t-257.5 -38q-278 0 -448 125zM481 522q0 -180 176 -180q56 0 113 22t94 62l54 260q-64 72 -179 72q-114 0 -186 -64.5t-72 -171.5z" />
<glyph unicode="h" d="M121 0l309 1454h309l-108 -510q110 96 270 96q158 0 250 -108t92 -264q0 -54 -12 -107l-119 -561h-309l115 535q8 36 8 75q0 148 -152 148q-116 0 -205 -105l-139 -653h-309z" />
<glyph unicode="i" horiz-adv-x="552" d="M121 0l217 1024h311l-217 -1024h-311zM358 1266q0 93 57.5 148.5t153.5 55.5q68 0 117 -41.5t49 -111.5q0 -85 -63 -148h-289q-25 36 -25 97z" />
<glyph unicode="j" horiz-adv-x="552" d="M-172 -377l63 293h64q90 0 125 29t55 123l205 956h311l-219 -1024q-16 -74 -37.5 -130.5t-46 -96.5t-60.5 -67.5t-71 -44t-87.5 -25t-100 -11t-117.5 -2.5h-84zM360 1266q0 93 57.5 148.5t153.5 55.5q68 0 117 -41.5t49 -111.5q0 -85 -63 -148h-289q-25 36 -25 97z" />
<glyph unicode="k" horiz-adv-x="1116" d="M121 0l309 1454h309l-190 -897l420 467h368l-471 -522l277 -502h-324l-280 512l-109 -512h-309z" />
<glyph unicode="l" horiz-adv-x="552" d="M121 0l309 1454h311l-309 -1454h-311z" />
<glyph unicode="m" horiz-adv-x="1822" d="M121 0l217 1024h305l-14 -76q35 37 97 64.5t134 27.5q172 0 268 -133q54 52 138 92.5t194 40.5q181 0 280 -102.5t99 -271.5q0 -70 -14 -136l-113 -530h-309l110 516q11 60 11 90q0 71 -32 111.5t-97 40.5q-43 0 -102.5 -34t-94.5 -93q-3 -58 -14 -101l-113 -530h-309 l110 516q11 61 11 90q0 71 -32 111.5t-97 40.5q-41 0 -96 -30t-89 -79l-139 -649h-309z" />
<glyph unicode="n" d="M121 0l217 1024h305l-14 -82q109 98 272 98q158 0 250 -108t92 -264q0 -54 -12 -107l-119 -561h-309l112 535q9 41 9 75q0 148 -150 148q-115 0 -205 -103l-139 -655h-309z" />
<glyph unicode="o" horiz-adv-x="1193" d="M168 465q0 162 73 293t207 206.5t304 75.5q113 0 206.5 -39.5t153.5 -106.5t92.5 -152.5t32.5 -180.5q0 -162 -73 -293.5t-207 -207.5t-304 -76q-113 0 -206.5 40t-153.5 107t-92.5 153t-32.5 181zM479 492q0 -99 57 -159.5t144 -60.5q107 0 176.5 75t69.5 188 q0 99 -57 158t-144 59q-107 0 -176.5 -73.5t-69.5 -186.5z" />
<glyph unicode="p" d="M41 -377l297 1401h283l-11 -61q95 77 234 77q120 0 218 -63.5t151 -166.5t53 -222q0 -171 -67 -306.5t-200 -216.5t-313 -81q-155 0 -244 75l-92 -436h-309zM502 338q64 -72 180 -72q115 0 194.5 78.5t79.5 202.5q0 99 -52.5 155t-139.5 56q-107 0 -186 -70z" />
<glyph unicode="q" horiz-adv-x="1220" d="M174 436q0 168 72.5 305.5t206 218t301.5 80.5q148 0 241 -75l13 59h309l-297 -1401h-309l88 418q-89 -57 -209 -57q-115 0 -211.5 63t-150.5 167t-54 222zM483 477q0 -99 53 -155t140 -56q49 0 98.5 17.5t85.5 48.5l76 354q-66 72 -178 72q-115 0 -195 -79t-80 -202z " />
<glyph unicode="r" horiz-adv-x="802" d="M121 0l217 1024h309l-18 -88q94 104 256 104q59 0 106 -16l-67 -322q-60 35 -150 35q-49 0 -105.5 -18t-97.5 -49l-141 -670h-309z" />
<glyph unicode="s" horiz-adv-x="849" d="M90 213l219 152q36 -64 77 -99t110 -35q38 0 61 16t23 44q0 19 -13 37t-24.5 26.5t-48.5 34.5l-70 47q-52 34 -85 61t-64 63t-45.5 78.5t-14.5 94.5q0 132 93.5 219.5t264.5 87.5q124 0 220.5 -50.5t140.5 -129.5l-211 -155q-28 47 -67.5 70.5t-80.5 23.5 q-35 0 -53 -16.5t-18 -41.5q0 -24 16 -42t62 -48l53 -35q121 -76 177 -144t56 -155q0 -158 -99.5 -245.5t-276.5 -87.5q-149 0 -253.5 64.5t-148.5 164.5z" />
<glyph unicode="t" horiz-adv-x="843" d="M188 754v270h218l34 154l340 153l-65 -307h291l-62 -270h-287l-73 -351q-6 -24 -6 -45q0 -40 23.5 -57.5t74.5 -17.5h168l-60 -283h-231q-140 0 -217.5 72.5t-77.5 208.5q0 59 14 122l76 351h-160z" />
<glyph unicode="u" d="M201 358q0 67 14 136l113 530h309l-109 -516q-10 -55 -10 -92q0 -150 148 -150q135 0 208 119l136 639h309l-217 -1024h-305l14 82q-112 -98 -276 -98q-143 0 -238.5 100.5t-95.5 273.5z" />
<glyph unicode="v" horiz-adv-x="1048" d="M174 1024h320l133 -459l315 459h363l-777 -1040z" />
<glyph unicode="w" horiz-adv-x="1495" d="M209 1024h315l47 -571l377 587l123 -604l297 588h336l-543 -1024h-235l-90 422l-283 -422h-236z" />
<glyph unicode="x" horiz-adv-x="1126" d="M-20 0l516 543l-256 481h329l138 -260l247 260h381l-491 -516l274 -508h-330l-155 287l-273 -287h-380z" />
<glyph unicode="y" horiz-adv-x="1052" d="M141 -377l219 377l-161 1024h317l80 -647l346 647h338l-815 -1401h-324z" />
<glyph unicode="z" horiz-adv-x="1044" d="M18 0l633 758h-409l55 266h930l-629 -756h438l-57 -268h-961z" />
<glyph unicode="{" horiz-adv-x="659" d="M168 504l47 221h16q56 0 88.5 30.5t42.5 78.5l93 430q35 163 121.5 226.5t230.5 63.5h182l-47 -221h-96q-63 0 -95.5 -26.5t-45.5 -89.5l-87 -402q-18 -86 -62.5 -136.5t-104.5 -64.5q92 -23 92 -135q0 -15 -8 -65l-86 -402q-7 -28 -7 -45q0 -38 23.5 -54.5t75.5 -16.5 h96l-47 -222h-154q-122 0 -188 61t-66 187q0 58 15 129l73 344q4 20 4 31q0 78 -90 78h-16z" />
<glyph unicode="|" horiz-adv-x="690" d="M330 -377v1831h260v-1831h-260z" />
<glyph unicode="}" horiz-adv-x="659" d="M-70 -326l47 222h97q63 0 95.5 26.5t45.5 89.5l86 402q18 85 63 135.5t105 64.5q-92 23 -92 136q0 15 8 65l86 402q6 24 6 45q0 38 -23.5 54.5t-74.5 16.5h-96l47 221h153q254 0 254 -247q0 -63 -14 -129l-74 -344q-4 -20 -4 -31q0 -78 90 -78h17l-47 -221h-17 q-56 0 -88.5 -30.5t-42.5 -78.5l-92 -430q-18 -85 -50.5 -143t-79 -89.5t-99.5 -45t-123 -13.5h-183z" />
<glyph unicode="~" horiz-adv-x="1234" d="M295 365v276l280 172l332 -192l281 170v-277l-281 -172l-332 193z" />
<glyph unicode="&#xa2;" horiz-adv-x="1169" d="M201 465q0 221 133 378t352 189l37 172h260l-41 -188q96 -32 167 -98t110 -148l-256 -152q-29 62 -84 98t-121 36q-107 0 -176.5 -73.5t-69.5 -186.5q0 -100 57 -160t144 -60q132 0 217 113l219 -182q-76 -96 -186 -153t-240 -64l-35 -166h-260l45 207 q-129 57 -200.5 176t-71.5 262z" />
<glyph unicode="&#xa3;" horiz-adv-x="1241" d="M123 0l61 289h156l68 317h-156l51 240h170q-27 83 -27 149q0 98 36 184.5t101.5 151t162.5 102t212 37.5q181 0 307 -111t126 -276q0 -25 -7 -69h-303q2 8 2 24q0 63 -45.5 103.5t-113.5 40.5q-86 0 -136.5 -50.5t-50.5 -130.5q0 -65 42 -110t122 -45h137l-51 -240h-268 l-68 -317h580l-62 -289h-1046z" />
<glyph unicode="&#xa5;" horiz-adv-x="1400" d="M229 219l50 234h360l35 157h-363l51 234h211l-258 610h351l213 -528l442 528h383l-520 -610h215l-51 -234h-363l-35 -157h365l-49 -234h-365l-45 -219h-311l45 219h-361z" />
<glyph unicode="&#xa8;" horiz-adv-x="1191" d="M469 1325q0 67 48.5 115.5t115.5 48.5t115.5 -48.5t48.5 -115.5t-48.5 -115.5t-115.5 -48.5t-115.5 48.5t-48.5 115.5zM956 1325q0 67 48 115.5t116 48.5t116 -48.5t48 -115.5t-48 -115.5t-116 -48.5t-116 48.5t-48 115.5z" />
<glyph unicode="&#xa9;" horiz-adv-x="1658" d="M242 727q0 151 59 288.5t158.5 237t237 158.5t288.5 59q202 0 373 -99.5t271 -270.5t100 -373t-100 -373t-271 -270.5t-373 -99.5q-151 0 -288.5 59t-237 158.5t-158.5 237t-59 288.5zM457 727q0 -143 71 -264.5t192.5 -192.5t264.5 -71t264.5 71t192.5 192.5t71 264.5 t-71 264.5t-192.5 192.5t-264.5 71t-264.5 -71t-192.5 -192.5t-71 -264.5zM653 727q0 145 103 247.5t248 102.5q91 0 169 -44.5t125 -119.5l-153 -108q-20 41 -57 66.5t-84 25.5q-68 0 -113 -50t-45 -120t45 -120t113 -50q47 0 84.5 25t58.5 65l151 -106 q-47 -75 -125 -119.5t-169 -44.5q-145 0 -248 102.5t-103 247.5z" />
<glyph unicode="&#xab;" horiz-adv-x="1177" d="M164 512l440 494l180 -166l-321 -351l166 -354l-234 -117zM645 512l440 494l181 -166l-322 -351l166 -354l-233 -117z" />
<glyph unicode="&#xad;" horiz-adv-x="757" d="M180 430l64 295h581l-63 -295h-582z" />
<glyph unicode="&#xae;" horiz-adv-x="1658" d="M242 727q0 151 59 288.5t158.5 237t237 158.5t288.5 59q202 0 373 -99.5t271 -270.5t100 -373t-100 -373t-271 -270.5t-373 -99.5q-151 0 -288.5 59t-237 158.5t-158.5 237t-59 288.5zM457 727q0 -143 71 -264.5t192.5 -192.5t264.5 -71t264.5 71t192.5 192.5t71 264.5 t-71 264.5t-192.5 192.5t-264.5 71t-264.5 -71t-192.5 -192.5t-71 -264.5zM756 383v688h266q91 0 151 -61t60 -150q0 -61 -30 -110.5t-81 -75.5l178 -291h-198l-162 266v-266h-184zM936 799h63q24 0 39 15.5t15 37.5q0 23 -14 38t-38 15h-65v-106z" />
<glyph unicode="&#xb4;" horiz-adv-x="901" d="M446 1137l236 317h365l-365 -317h-236z" />
<glyph unicode="&#xb8;" horiz-adv-x="720" d="M113 -274l178 274h209l-127 -274h-260z" />
<glyph unicode="&#xbb;" horiz-adv-x="1177" d="M129 184l322 351l-166 354l233 117l232 -494l-441 -494zM610 184l322 351l-166 354l233 117l232 -494l-440 -494z" />
<glyph unicode="&#x2c6;" horiz-adv-x="1038" d="M438 1307l404 184l311 -203l-111 -170l-213 139l-305 -139z" />
<glyph unicode="&#x2da;" horiz-adv-x="788" d="M438 1364q0 101 72.5 173.5t173.5 72.5t173.5 -72.5t72.5 -173.5t-72.5 -173.5t-173.5 -72.5t-173.5 72.5t-72.5 173.5zM588 1364q0 -40 28 -68t68 -28t68 28t28 68t-28 68t-68 28t-68 -28t-28 -68z" />
<glyph unicode="&#x2dc;" horiz-adv-x="1126" d="M410 1135l20 59q40 115 109.5 176.5t162.5 61.5q51 0 100 -20.5t89 -41t70 -20.5q34 0 53.5 18.5t42.5 67.5h207l-21 -60q-83 -237 -270 -237q-51 0 -100.5 20.5t-90 41t-69.5 20.5q-34 0 -53.5 -18t-43.5 -68h-206z" />
<glyph unicode="&#x2000;" horiz-adv-x="817" />
<glyph unicode="&#x2001;" horiz-adv-x="1634" />
<glyph unicode="&#x2002;" horiz-adv-x="817" />
<glyph unicode="&#x2003;" horiz-adv-x="1634" />
<glyph unicode="&#x2004;" horiz-adv-x="544" />
<glyph unicode="&#x2005;" horiz-adv-x="408" />
<glyph unicode="&#x2006;" horiz-adv-x="272" />
<glyph unicode="&#x2007;" horiz-adv-x="272" />
<glyph unicode="&#x2008;" horiz-adv-x="204" />
<glyph unicode="&#x2009;" horiz-adv-x="326" />
<glyph unicode="&#x200a;" horiz-adv-x="90" />
<glyph unicode="&#x2010;" horiz-adv-x="757" d="M180 430l64 295h581l-63 -295h-582z" />
<glyph unicode="&#x2011;" horiz-adv-x="757" d="M180 430l64 295h581l-63 -295h-582z" />
<glyph unicode="&#x2012;" horiz-adv-x="757" d="M180 430l64 295h581l-63 -295h-582z" />
<glyph unicode="&#x2013;" horiz-adv-x="1169" d="M180 430l66 295h991l-66 -295h-991z" />
<glyph unicode="&#x2014;" horiz-adv-x="1769" d="M180 430l66 295h1591l-65 -295h-1592z" />
<glyph unicode="&#x2018;" horiz-adv-x="630" d="M303 782l76 357l199 315h178l-158 -315h137l-76 -357h-356z" />
<glyph unicode="&#x2019;" horiz-adv-x="630" d="M350 782l158 316h-137l75 356h357l-76 -356l-199 -316h-178z" />
<glyph unicode="&#x201a;" horiz-adv-x="630" d="M117 -315l157 315h-137l76 356h356l-75 -356l-199 -315h-178z" />
<glyph unicode="&#x201c;" horiz-adv-x="1089" d="M303 782l76 357l199 315h178l-158 -315h137l-76 -357h-356zM762 782l76 357l198 315h178l-157 -315h137l-76 -357h-356z" />
<glyph unicode="&#x201d;" horiz-adv-x="1089" d="M350 782l158 316h-137l75 356h357l-76 -356l-199 -316h-178zM809 782l158 316h-138l76 356h357l-76 -356l-199 -316h-178z" />
<glyph unicode="&#x201e;" horiz-adv-x="1089" d="M117 -315l157 315h-137l76 356h356l-75 -356l-199 -315h-178zM575 -315l158 315h-137l76 356h356l-76 -356l-198 -315h-179z" />
<glyph unicode="&#x2022;" horiz-adv-x="835" d="M270 618q0 116 82 197.5t197 81.5t196.5 -81.5t81.5 -197.5t-81.5 -197t-196.5 -81q-116 0 -197.5 81.5t-81.5 196.5z" />
<glyph unicode="&#x2026;" horiz-adv-x="1767" d="M121 205q0 92 64.5 156.5t156.5 64.5t156.5 -64.5t64.5 -156.5t-64.5 -156.5t-156.5 -64.5t-156.5 64.5t-64.5 156.5zM707 205q0 92 64.5 156.5t156.5 64.5t156.5 -64.5t64.5 -156.5t-64.5 -156.5t-156.5 -64.5t-156.5 64.5t-64.5 156.5zM1292 205q0 92 64.5 156.5 t156.5 64.5t157 -64.5t65 -156.5t-65 -156.5t-157 -64.5t-156.5 64.5t-64.5 156.5z" />
<glyph unicode="&#x202f;" horiz-adv-x="326" />
<glyph unicode="&#x2039;" horiz-adv-x="696" d="M164 512l440 494l180 -166l-321 -351l166 -354l-234 -117z" />
<glyph unicode="&#x203a;" horiz-adv-x="696" d="M129 184l322 351l-166 354l233 117l232 -494l-441 -494z" />
<glyph unicode="&#x205f;" horiz-adv-x="408" />
<glyph unicode="&#x20ac;" horiz-adv-x="1474" d="M162 524l76 135h139v7q0 75 10 129h-168l76 135h127q40 114 111 211t170 171t230 116t279 42q283 0 471 -178l-157 -276q-61 75 -156 119.5t-211 44.5q-154 0 -266 -67.5t-172 -182.5h754l-76 -135h-725q-8 -44 -8 -103v-33h655l-78 -135h-553q43 -122 143.5 -187 t229.5 -65q142 0 299 68l-72 -307q-107 -49 -252 -49q-132 0 -245.5 42.5t-194 116.5t-134 171t-75.5 210h-227z" />
<glyph unicode="&#x2122;" horiz-adv-x="1591" d="M317 1270v184h525v-184h-168v-543h-189v543h-168zM956 727v735l365 -368l365 368v-735h-189v289l-176 -178l-176 178v-289h-189z" />
<glyph unicode="&#x25fc;" horiz-adv-x="1024" d="M0 0v1024h1024v-1024h-1024z" />
</font>
</defs>
</svg>
